<?xml version="1.0" encoding="UTF-8" standalone="no"?>
<!-- Created with Inkscape (http://www.inkscape.org/) -->

<svg
   xmlns:dc="http://purl.org/dc/elements/1.1/"
   xmlns:cc="http://creativecommons.org/ns#"
   xmlns:rdf="http://www.w3.org/1999/02/22-rdf-syntax-ns#"
   xmlns:svg="http://www.w3.org/2000/svg"
   xmlns="http://www.w3.org/2000/svg"
   xmlns:xlink="http://www.w3.org/1999/xlink"
   xmlns:sodipodi="http://sodipodi.sourceforge.net/DTD/sodipodi-0.dtd"
   xmlns:inkscape="http://www.inkscape.org/namespaces/inkscape"
   width="72"
   height="72"
   id="svg2"
   version="1.1"
   inkscape:version="0.91 r13725"
   sodipodi:docname="btn_toggle_coda.svg"
   inkscape:export-filename="/Volumes/Macintosh HD/Users/jorgkrein/Documents/AndroidStudio/SongEasy/doc/graphics/buttons/toggle_coda/btn_toggle_coda.png"
   inkscape:export-xdpi="640"
   inkscape:export-ydpi="640">
  <sodipodi:namedview
     id="base"
     pagecolor="#ffffff"
     bordercolor="#666666"
     borderopacity="1.0"
     inkscape:pageopacity="0.0"
     inkscape:pageshadow="2"
     inkscape:zoom="6.638947"
     inkscape:cx="24.880023"
     inkscape:cy="38.639399"
     inkscape:document-units="px"
     inkscape:current-layer="layer5"
     showgrid="false"
     inkscape:window-width="1483"
     inkscape:window-height="911"
     inkscape:window-x="237"
     inkscape:window-y="37"
     inkscape:window-maximized="0"
     showguides="true"
     inkscape:guide-bbox="true" />
  <defs
     id="defs4">
    <inkscape:path-effect
       effect="spiro"
       id="path-effect5094"
       is_visible="true" />
    <inkscape:path-effect
       is_visible="true"
       id="path-effect5050"
       effect="spiro" />
    <inkscape:path-effect
       effect="spiro"
       id="path-effect5046"
       is_visible="true" />
    <inkscape:path-effect
       effect="spiro"
       id="path-effect5042"
       is_visible="true" />
    <marker
       inkscape:stockid="DotS"
       orient="auto"
       refY="0.0"
       refX="0.0"
       id="DotS"
       style="overflow:visible">
      <path
         id="path4697"
         d="M -2.5,-1.0 C -2.5,1.7600000 -4.7400000,4.0 -7.5,4.0 C -10.260000,4.0 -12.5,1.7600000 -12.5,-1.0 C -12.5,-3.7600000 -10.260000,-6.0 -7.5,-6.0 C -4.7400000,-6.0 -2.5,-3.7600000 -2.5,-1.0 z "
         style="fill-rule:evenodd;stroke:#000000;stroke-width:1.0pt;marker-start:none;marker-end:none"
         transform="scale(0.2) translate(7.4, 1)" />
    </marker>
    <marker
       inkscape:stockid="DotM"
       orient="auto"
       refY="0.0"
       refX="0.0"
       id="DotM"
       style="overflow:visible">
      <path
         id="path4694"
         d="M -2.5,-1.0 C -2.5,1.7600000 -4.7400000,4.0 -7.5,4.0 C -10.260000,4.0 -12.5,1.7600000 -12.5,-1.0 C -12.5,-3.7600000 -10.260000,-6.0 -7.5,-6.0 C -4.7400000,-6.0 -2.5,-3.7600000 -2.5,-1.0 z "
         style="fill-rule:evenodd;stroke:#000000;stroke-width:1.0pt;marker-start:none;marker-end:none"
         transform="scale(0.4) translate(7.4, 1)" />
    </marker>
    <inkscape:path-effect
       effect="skeletal"
       id="path-effect3229"
       is_visible="true"
       pattern="M 0,0 0,10 10,5 z"
       copytype="single_stretched"
       prop_scale="1"
       scale_y_rel="false"
       spacing="0"
       normal_offset="0"
       tang_offset="0"
       prop_units="false"
       vertical_pattern="false"
       fuse_tolerance="0" />
    <linearGradient
       inkscape:collect="always"
       id="linearGradient9592">
      <stop
         style="stop-color:#050000;stop-opacity:1;"
         offset="0"
         id="stop9594" />
      <stop
         style="stop-color:#050000;stop-opacity:0;"
         offset="1"
         id="stop9596" />
    </linearGradient>
    <inkscape:path-effect
       effect="skeletal"
       id="path-effect4079"
       is_visible="true"
       pattern="M 0,5 C 0,2.24 2.24,0 5,0 7.76,0 10,2.24 10,5 10,7.76 7.76,10 5,10 2.24,10 0,7.76 0,5 z"
       copytype="single_stretched"
       prop_scale="1"
       scale_y_rel="false"
       spacing="0"
       normal_offset="0"
       tang_offset="0"
       prop_units="false"
       vertical_pattern="false"
       fuse_tolerance="0" />
    <inkscape:path-effect
       effect="skeletal"
       id="path-effect4075"
       is_visible="true"
       pattern="m -7.7024132,978.46814 0,10 10,-5 z"
       copytype="single_stretched"
       prop_scale="1"
       scale_y_rel="false"
       spacing="0"
       normal_offset="0"
       tang_offset="0"
       prop_units="false"
       vertical_pattern="false"
       fuse_tolerance="0" />
    <inkscape:path-effect
       effect="skeletal"
       id="path-effect4069"
       is_visible="true"
       pattern="m 4.9244936,-7.7024132 1,0"
       copytype="single_stretched"
       prop_scale="1"
       scale_y_rel="false"
       spacing="0"
       normal_offset="0"
       tang_offset="0"
       prop_units="false"
       vertical_pattern="false"
       fuse_tolerance="0" />
    <marker
       inkscape:stockid="DotL"
       orient="auto"
       refY="0.0"
       refX="0.0"
       id="DotL"
       style="overflow:visible">
      <path
         id="path3682"
         d="M -2.5,-1.0 C -2.5,1.7600000 -4.7400000,4.0 -7.5,4.0 C -10.260000,4.0 -12.5,1.7600000 -12.5,-1.0 C -12.5,-3.7600000 -10.260000,-6.0 -7.5,-6.0 C -4.7400000,-6.0 -2.5,-3.7600000 -2.5,-1.0 z "
         style="fill-rule:evenodd;stroke:#000000;stroke-width:1.0pt;marker-start:none;marker-end:none"
         transform="scale(0.8) translate(7.4, 1)" />
    </marker>
    <inkscape:path-effect
       effect="skeletal"
       id="path-effect3615"
       is_visible="true"
       pattern="M 0,0 1,0"
       copytype="single_stretched"
       prop_scale="1"
       scale_y_rel="false"
       spacing="0"
       normal_offset="0"
       tang_offset="0"
       prop_units="false"
       vertical_pattern="false"
       fuse_tolerance="0" />
    <inkscape:path-effect
       effect="skeletal"
       id="path-effect3611"
       is_visible="true"
       pattern="M 0,0 1,0"
       copytype="single_stretched"
       prop_scale="1"
       scale_y_rel="false"
       spacing="0"
       normal_offset="0"
       tang_offset="0"
       prop_units="false"
       vertical_pattern="false"
       fuse_tolerance="0" />
    <inkscape:perspective
       sodipodi:type="inkscape:persp3d"
       inkscape:vp_x="0 : 36 : 1"
       inkscape:vp_y="0 : 1000 : 0"
       inkscape:vp_z="72 : 36 : 1"
       inkscape:persp3d-origin="36 : 24 : 1"
       id="perspective2831" />
    <inkscape:path-effect
       effect="skeletal"
       id="path-effect3793"
       is_visible="true"
       pattern="M 0,5 C 0,2.24 2.24,0 5,0 7.76,0 10,2.24 10,5 10,7.76 7.76,10 5,10 2.24,10 0,7.76 0,5 z"
       copytype="single_stretched"
       prop_scale="1"
       scale_y_rel="false"
       spacing="0"
       normal_offset="0"
       tang_offset="0"
       prop_units="false"
       vertical_pattern="false"
       fuse_tolerance="0" />
    <inkscape:path-effect
       effect="spiro"
       id="path-effect3791"
       is_visible="true" />
    <inkscape:path-effect
       effect="skeletal"
       id="path-effect3787"
       is_visible="true"
       pattern="m -2.2437448,-6.7789181 0,9.9999996 10.0000006,-4.9999996 z"
       copytype="single_stretched"
       prop_scale="0.6"
       scale_y_rel="false"
       spacing="0"
       normal_offset="0"
       tang_offset="0"
       prop_units="false"
       vertical_pattern="false"
       fuse_tolerance="0" />
    <inkscape:path-effect
       effect="spiro"
       id="path-effect3785"
       is_visible="true" />
    <inkscape:path-effect
       effect="skeletal"
       id="path-effect3007"
       is_visible="true"
       pattern="m 2.6785714,981.07647 0,10 9.9999996,-5 z"
       copytype="single_stretched"
       prop_scale="1"
       scale_y_rel="false"
       spacing="0"
       normal_offset="0"
       tang_offset="0"
       prop_units="false"
       vertical_pattern="false"
       fuse_tolerance="0" />
    <marker
       inkscape:stockid="Arrow2Lstart"
       orient="auto"
       refY="0.0"
       refX="0.0"
       id="Arrow2Lstart"
       style="overflow:visible">
      <path
         id="path3827"
         style="font-size:12.0;fill-rule:evenodd;stroke-width:0.62500000;stroke-linejoin:round"
         d="M 8.7185878,4.0337352 L -2.2072895,0.016013256 L 8.7185884,-4.0017078 C 6.9730900,-1.6296469 6.9831476,1.6157441 8.7185878,4.0337352 z "
         transform="scale(1.1) translate(1,0)" />
    </marker>
    <linearGradient
       inkscape:collect="always"
       xlink:href="#linearGradient9592"
       id="linearGradient9598"
       x1="6.6323576"
       y1="62.625"
       x2="35.153356"
       y2="62.625"
       gradientUnits="userSpaceOnUse" />
    <inkscape:path-effect
       effect="spiro"
       id="path-effect5094-9"
       is_visible="true" />
    <inkscape:path-effect
       effect="spiro"
       id="path-effect5042-4"
       is_visible="true" />
    <inkscape:path-effect
       is_visible="true"
       id="path-effect5050-8"
       effect="spiro" />
    <inkscape:perspective
       id="perspective10"
       inkscape:persp3d-origin="372.04724 : 350.78739 : 1"
       inkscape:vp_z="744.09448 : 526.18109 : 1"
       inkscape:vp_y="0 : 1000 : 0"
       inkscape:vp_x="0 : 526.18109 : 1"
       sodipodi:type="inkscape:persp3d" />
  </defs>
  <metadata
     id="metadata7">
    <rdf:RDF>
      <cc:Work
         rdf:about="">
        <dc:format>image/svg+xml</dc:format>
        <dc:type
           rdf:resource="http://purl.org/dc/dcmitype/StillImage" />
        <dc:title></dc:title>
      </cc:Work>
    </rdf:RDF>
  </metadata>
  <g
     inkscape:groupmode="layer"
     id="layer5"
     inkscape:label="Back"
     style="display:inline" />
  <g
     transform="translate(0,-980.36218)"
     id="layer1"
     inkscape:groupmode="layer"
     inkscape:label="Front"
     style="display:inline">
    <g
       transform="matrix(1.2608306,0,0,1.2608306,-98.661373,259.37317)"
       id="layer1-4"
       inkscape:label="Layer 1">
      <g
         id="layer1-40"
         transform="matrix(1.5575495,0,0,1.5575495,-478.78788,-227.01124)">
        <g
           id="g2330"
           transform="translate(0.513235,0.5086)">
          <g
             id="g2320">
            <path
               id="path2225"
               style="fill:#000000"
               d="m 364.0083,531.07376 c 0.0145,-1.53181 0.0347,0.70843 0.0347,-0.69896 1.56871,0 2.19349,-0.0375 4.01038,-0.0375 0.28898,-4.19447 3.11358,-7.27587 6.98208,-8.00827 0,-2.29099 0.009,-2.11471 0.009,-3.96166 0.32042,0 0.20976,0.006 0.55316,0.006 0,7.25844 -0.0164,9.26474 -0.0164,12.5702 -3.98005,0 -7.49404,0.13008 -11.57294,0.13008 z m 11.02303,-7.89015 c -2.70866,0.85438 -3.09193,5.41335 -3.14141,7.07091 1.41636,0 1.38107,0.0184 3.03865,0.0184 0,-1.8304 0.10276,-4.83472 0.10276,-7.08928 z"
               inkscape:connector-curvature="0" />
            <path
               id="path2318"
               style="fill:#000000"
               d="m 386.98153,531.07376 c -0.0145,-1.53181 -0.0347,0.70843 -0.0347,-0.69896 -1.56871,0 -2.19349,-0.0375 -4.01038,-0.0375 -0.28898,-4.19447 -3.11358,-7.27587 -6.98208,-8.00827 0,-2.29099 -0.009,-2.11471 -0.009,-3.96166 -0.32042,0 -0.20976,0.006 -0.55316,0.006 0,7.25844 0.0164,9.26474 0.0164,12.5702 3.98005,0 7.49404,0.13008 11.57294,0.13008 z m -11.02303,-7.89015 c 2.70866,0.85438 3.09193,5.41335 3.14141,7.07091 -1.41636,0 -1.38107,0.0184 -3.03865,0.0184 0,-1.8304 -0.10276,-4.83472 -0.10276,-7.08928 z"
               inkscape:connector-curvature="0" />
          </g>
          <g
             id="g2324"
             transform="matrix(1,0,0,-1,-3e-4,1061.7176)">
            <path
               id="path2326"
               style="fill:#000000"
               d="m 364.0083,531.07376 c 0.0145,-1.53181 0.0347,0.70843 0.0347,-0.69896 1.56871,0 2.19349,-0.0375 4.01038,-0.0375 0.28898,-4.19447 3.11358,-7.27587 6.98208,-8.00827 0,-2.29099 0.009,-2.11471 0.009,-3.96166 0.32042,0 0.20976,0.006 0.55316,0.006 0,7.25844 -0.0164,9.26474 -0.0164,12.5702 -3.98005,0 -7.49404,0.13008 -11.57294,0.13008 z m 11.02303,-7.89015 c -2.70866,0.85438 -3.09193,5.41335 -3.14141,7.07091 1.41636,0 1.38107,0.0184 3.03865,0.0184 0,-1.8304 0.10276,-4.83472 0.10276,-7.08928 z"
               inkscape:connector-curvature="0" />
            <path
               id="path2328"
               style="fill:#000000"
               d="m 386.98153,531.07376 c -0.0145,-1.53181 -0.0347,0.70843 -0.0347,-0.69896 -1.56871,0 -2.19349,-0.0375 -4.01038,-0.0375 -0.28898,-4.19447 -3.11358,-7.27587 -6.98208,-8.00827 0,-2.29099 -0.009,-2.11471 -0.009,-3.96166 -0.32042,0 -0.20976,0.006 -0.55316,0.006 0,7.25844 0.0164,9.26474 0.0164,12.5702 3.98005,0 7.49404,0.13008 11.57294,0.13008 z m -11.02303,-7.89015 c 2.70866,0.85438 3.09193,5.41335 3.14141,7.07091 -1.41636,0 -1.38107,0.0184 -3.03865,0.0184 0,-1.8304 -0.10276,-4.83472 -0.10276,-7.08928 z"
               inkscape:connector-curvature="0" />
          </g>
        </g>
      </g>
    </g>
  </g>
</svg>
